<svg xmlns="http://www.w3.org/2000/svg" width="500" height="500" viewBox="0 0 500 500">
      <!-- Row 1 -->
      <g transform="translate(12,18)"><path d="M0,15 Q2,8 0,0" fill="none" stroke="#a5d6a7" stroke-width="1.5" stroke-linecap="round"/><path d="M5,15 Q6,5 8,0" fill="none" stroke="#81c784" stroke-width="1.5" stroke-linecap="round"/><path d="M10,15 Q9,9 12,2" fill="none" stroke="#a5d6a7" stroke-width="1.5" stroke-linecap="round"/><path d="M15,15 Q17,10 15,4" fill="none" stroke="#81c784" stroke-width="1.5" stroke-linecap="round"/><path d="M20,15 Q19,8 22,1" fill="none" stroke="#a5d6a7" stroke-width="1.5" stroke-linecap="round"/></g>
      <g transform="translate(58,32)"><path d="M0,14 Q2,7 0,0" fill="none" stroke="#a5d6a7" stroke-width="1.5" stroke-linecap="round"/><path d="M5,14 Q4,5 7,0" fill="none" stroke="#81c784" stroke-width="1.5" stroke-linecap="round"/><path d="M10,14 Q12,8 9,1" fill="none" stroke="#a5d6a7" stroke-width="1.5" stroke-linecap="round"/></g>
      <g transform="translate(102,15)"><path d="M0,18 Q-2,10 2,0" fill="none" stroke="#81c784" stroke-width="1.5" stroke-linecap="round"/><path d="M6,18 Q7,12 5,3" fill="none" stroke="#a5d6a7" stroke-width="1.5" stroke-linecap="round"/><path d="M12,18 Q10,8 14,0" fill="none" stroke="#81c784" stroke-width="1.5" stroke-linecap="round"/><path d="M18,18 Q20,12 17,2" fill="none" stroke="#a5d6a7" stroke-width="1.5" stroke-linecap="round"/></g>
      <g transform="translate(148,28)"><path d="M0,16 Q-1,8 2,0" fill="none" stroke="#81c784" stroke-width="1.5" stroke-linecap="round"/><path d="M6,16 Q8,10 5,1" fill="none" stroke="#a5d6a7" stroke-width="1.5" stroke-linecap="round"/><path d="M12,16 Q11,6 14,0" fill="none" stroke="#81c784" stroke-width="1.5" stroke-linecap="round"/></g>
      <g transform="translate(195,12)"><path d="M0,12 Q1,6 -1,0" fill="none" stroke="#a5d6a7" stroke-width="1.5" stroke-linecap="round"/><path d="M5,12 Q6,4 4,0" fill="none" stroke="#81c784" stroke-width="1.5" stroke-linecap="round"/><path d="M10,12 Q8,7 11,1" fill="none" stroke="#a5d6a7" stroke-width="1.5" stroke-linecap="round"/></g>
      <g transform="translate(238,35)"><path d="M0,15 Q2,8 0,0" fill="none" stroke="#a5d6a7" stroke-width="1.5" stroke-linecap="round"/><path d="M5,15 Q4,7 7,1" fill="none" stroke="#81c784" stroke-width="1.5" stroke-linecap="round"/></g>
      <g transform="translate(278,20)"><path d="M0,20 Q2,12 -1,0" fill="none" stroke="#81c784" stroke-width="1.5" stroke-linecap="round"/><path d="M7,20 Q8,10 6,2" fill="none" stroke="#a5d6a7" stroke-width="1.5" stroke-linecap="round"/><path d="M14,20 Q12,12 15,0" fill="none" stroke="#81c784" stroke-width="1.5" stroke-linecap="round"/><path d="M21,20 Q23,14 20,3" fill="none" stroke="#a5d6a7" stroke-width="1.5" stroke-linecap="round"/></g>
      <g transform="translate(328,10)"><path d="M0,14 Q2,7 0,0" fill="none" stroke="#a5d6a7" stroke-width="1.5" stroke-linecap="round"/><path d="M5,14 Q4,5 7,0" fill="none" stroke="#81c784" stroke-width="1.5" stroke-linecap="round"/><path d="M10,14 Q12,8 9,1" fill="none" stroke="#a5d6a7" stroke-width="1.5" stroke-linecap="round"/></g>
      <g transform="translate(372,30)"><path d="M0,16 Q-1,8 2,0" fill="none" stroke="#81c784" stroke-width="1.5" stroke-linecap="round"/><path d="M6,16 Q8,10 5,1" fill="none" stroke="#a5d6a7" stroke-width="1.5" stroke-linecap="round"/><path d="M12,16 Q11,6 14,0" fill="none" stroke="#81c784" stroke-width="1.5" stroke-linecap="round"/></g>
      <g transform="translate(418,18)"><path d="M0,15 Q2,8 0,0" fill="none" stroke="#a5d6a7" stroke-width="1.5" stroke-linecap="round"/><path d="M5,15 Q6,5 8,0" fill="none" stroke="#81c784" stroke-width="1.5" stroke-linecap="round"/><path d="M10,15 Q9,9 12,2" fill="none" stroke="#a5d6a7" stroke-width="1.5" stroke-linecap="round"/></g>
      <g transform="translate(465,25)"><path d="M0,18 Q-2,10 2,0" fill="none" stroke="#81c784" stroke-width="1.5" stroke-linecap="round"/><path d="M6,18 Q7,12 5,3" fill="none" stroke="#a5d6a7" stroke-width="1.5" stroke-linecap="round"/><path d="M12,18 Q10,8 14,0" fill="none" stroke="#81c784" stroke-width="1.5" stroke-linecap="round"/></g>

      <!-- Row 2 -->
      <g transform="translate(25,58)"><path d="M0,12 Q1,6 -1,0" fill="none" stroke="#a5d6a7" stroke-width="1.5" stroke-linecap="round"/><path d="M5,12 Q6,4 4,0" fill="none" stroke="#81c784" stroke-width="1.5" stroke-linecap="round"/><path d="M10,12 Q8,7 11,1" fill="none" stroke="#a5d6a7" stroke-width="1.5" stroke-linecap="round"/></g>
      <g transform="translate(72,70)"><path d="M0,12 Q1,6 -1,0" fill="none" stroke="#a5d6a7" stroke-width="1.5" stroke-linecap="round"/><path d="M5,12 Q6,8 4,2" fill="none" stroke="#81c784" stroke-width="1.5" stroke-linecap="round"/></g>
      <g transform="translate(118,55)"><path d="M0,16 Q-1,8 2,0" fill="none" stroke="#81c784" stroke-width="1.5" stroke-linecap="round"/><path d="M6,16 Q8,10 5,1" fill="none" stroke="#a5d6a7" stroke-width="1.5" stroke-linecap="round"/><path d="M12,16 Q11,6 14,0" fill="none" stroke="#81c784" stroke-width="1.5" stroke-linecap="round"/><path d="M18,16 Q20,11 17,3" fill="none" stroke="#a5d6a7" stroke-width="1.5" stroke-linecap="round"/></g>
      <g transform="translate(168,65)"><path d="M0,15 Q2,8 0,0" fill="none" stroke="#a5d6a7" stroke-width="1.5" stroke-linecap="round"/><path d="M5,15 Q6,5 8,0" fill="none" stroke="#81c784" stroke-width="1.5" stroke-linecap="round"/><path d="M10,15 Q9,9 12,2" fill="none" stroke="#a5d6a7" stroke-width="1.5" stroke-linecap="round"/></g>
      <g transform="translate(215,52)"><path d="M0,14 Q2,7 0,0" fill="none" stroke="#a5d6a7" stroke-width="1.5" stroke-linecap="round"/><path d="M5,14 Q4,5 7,0" fill="none" stroke="#81c784" stroke-width="1.5" stroke-linecap="round"/><path d="M10,14 Q12,8 9,1" fill="none" stroke="#a5d6a7" stroke-width="1.5" stroke-linecap="round"/></g>
      <g transform="translate(258,72)"><path d="M0,18 Q-2,10 2,0" fill="none" stroke="#81c784" stroke-width="1.5" stroke-linecap="round"/><path d="M6,18 Q7,12 5,3" fill="none" stroke="#a5d6a7" stroke-width="1.5" stroke-linecap="round"/></g>
      <g transform="translate(302,60)"><path d="M0,18 Q2,10 -1,0" fill="none" stroke="#81c784" stroke-width="1.5" stroke-linecap="round"/><path d="M7,18 Q6,8 9,1" fill="none" stroke="#a5d6a7" stroke-width="1.5" stroke-linecap="round"/><path d="M14,18 Q16,12 13,2" fill="none" stroke="#81c784" stroke-width="1.5" stroke-linecap="round"/></g>
      <g transform="translate(352,68)"><path d="M0,12 Q1,5 -1,0" fill="none" stroke="#a5d6a7" stroke-width="1.5" stroke-linecap="round"/><path d="M5,12 Q6,7 4,1" fill="none" stroke="#81c784" stroke-width="1.5" stroke-linecap="round"/><path d="M10,12 Q9,4 12,0" fill="none" stroke="#a5d6a7" stroke-width="1.5" stroke-linecap="round"/></g>
      <g transform="translate(398,55)"><path d="M0,20 Q2,12 -1,0" fill="none" stroke="#81c784" stroke-width="1.5" stroke-linecap="round"/><path d="M7,20 Q8,10 6,2" fill="none" stroke="#a5d6a7" stroke-width="1.5" stroke-linecap="round"/><path d="M14,20 Q12,12 15,0" fill="none" stroke="#81c784" stroke-width="1.5" stroke-linecap="round"/></g>
      <g transform="translate(448,62)"><path d="M0,15 Q2,8 0,0" fill="none" stroke="#81c784" stroke-width="1.5" stroke-linecap="round"/><path d="M5,15 Q4,7 7,1" fill="none" stroke="#a5d6a7" stroke-width="1.5" stroke-linecap="round"/></g>
      <g transform="translate(485,75)"><path d="M0,14 Q-1,7 2,0" fill="none" stroke="#a5d6a7" stroke-width="1.5" stroke-linecap="round"/><path d="M6,14 Q7,9 5,2" fill="none" stroke="#81c784" stroke-width="1.5" stroke-linecap="round"/><path d="M12,14 Q11,5 14,0" fill="none" stroke="#a5d6a7" stroke-width="1.5" stroke-linecap="round"/></g>

      <!-- Row 3 -->
      <g transform="translate(8,105)"><path d="M0,12 Q1,5 -1,0" fill="none" stroke="#a5d6a7" stroke-width="1.5" stroke-linecap="round"/><path d="M5,12 Q6,7 4,1" fill="none" stroke="#81c784" stroke-width="1.5" stroke-linecap="round"/><path d="M10,12 Q9,4 12,0" fill="none" stroke="#a5d6a7" stroke-width="1.5" stroke-linecap="round"/></g>
      <g transform="translate(52,95)"><path d="M0,20 Q2,12 -1,0" fill="none" stroke="#81c784" stroke-width="1.5" stroke-linecap="round"/><path d="M7,20 Q8,10 6,2" fill="none" stroke="#a5d6a7" stroke-width="1.5" stroke-linecap="round"/><path d="M14,20 Q12,12 15,0" fill="none" stroke="#81c784" stroke-width="1.5" stroke-linecap="round"/><path d="M21,20 Q23,14 20,3" fill="none" stroke="#a5d6a7" stroke-width="1.5" stroke-linecap="round"/></g>
      <g transform="translate(98,110)"><path d="M0,15 Q2,8 0,0" fill="none" stroke="#81c784" stroke-width="1.5" stroke-linecap="round"/><path d="M5,15 Q4,7 7,1" fill="none" stroke="#a5d6a7" stroke-width="1.5" stroke-linecap="round"/></g>
      <g transform="translate(142,98)"><path d="M0,14 Q-1,7 2,0" fill="none" stroke="#a5d6a7" stroke-width="1.5" stroke-linecap="round"/><path d="M6,14 Q7,9 5,2" fill="none" stroke="#81c784" stroke-width="1.5" stroke-linecap="round"/><path d="M12,14 Q11,5 14,0" fill="none" stroke="#a5d6a7" stroke-width="1.5" stroke-linecap="round"/></g>
      <g transform="translate(188,115)"><path d="M0,12 Q1,6 -1,0" fill="none" stroke="#a5d6a7" stroke-width="1.5" stroke-linecap="round"/><path d="M5,12 Q6,4 4,0" fill="none" stroke="#81c784" stroke-width="1.5" stroke-linecap="round"/><path d="M10,12 Q8,7 11,1" fill="none" stroke="#a5d6a7" stroke-width="1.5" stroke-linecap="round"/></g>
      <g transform="translate(235,100)"><path d="M0,10 Q1,5 0,0" fill="none" stroke="#a5d6a7" stroke-width="1.5" stroke-linecap="round"/><path d="M4,10 Q5,6 3,1" fill="none" stroke="#81c784" stroke-width="1.5" stroke-linecap="round"/></g>
      <g transform="translate(275,108)"><path d="M0,16 Q-1,8 2,0" fill="none" stroke="#81c784" stroke-width="1.5" stroke-linecap="round"/><path d="M6,16 Q8,10 5,1" fill="none" stroke="#a5d6a7" stroke-width="1.5" stroke-linecap="round"/><path d="M12,16 Q11,6 14,0" fill="none" stroke="#81c784" stroke-width="1.5" stroke-linecap="round"/></g>
      <g transform="translate(322,95)"><path d="M0,15 Q2,8 0,0" fill="none" stroke="#a5d6a7" stroke-width="1.5" stroke-linecap="round"/><path d="M5,15 Q6,5 8,0" fill="none" stroke="#81c784" stroke-width="1.5" stroke-linecap="round"/><path d="M10,15 Q9,9 12,2" fill="none" stroke="#a5d6a7" stroke-width="1.5" stroke-linecap="round"/></g>
      <g transform="translate(368,112)"><path d="M0,18 Q-2,10 2,0" fill="none" stroke="#81c784" stroke-width="1.5" stroke-linecap="round"/><path d="M6,18 Q7,12 5,3" fill="none" stroke="#a5d6a7" stroke-width="1.5" stroke-linecap="round"/><path d="M12,18 Q10,8 14,0" fill="none" stroke="#81c784" stroke-width="1.5" stroke-linecap="round"/></g>
      <g transform="translate(418,102)"><path d="M0,14 Q2,7 0,0" fill="none" stroke="#a5d6a7" stroke-width="1.5" stroke-linecap="round"/><path d="M5,14 Q4,5 7,0" fill="none" stroke="#81c784" stroke-width="1.5" stroke-linecap="round"/></g>
      <g transform="translate(462,118)"><path d="M0,12 Q1,6 -1,0" fill="none" stroke="#a5d6a7" stroke-width="1.5" stroke-linecap="round"/><path d="M5,12 Q6,4 4,0" fill="none" stroke="#81c784" stroke-width="1.5" stroke-linecap="round"/><path d="M10,12 Q8,7 11,1" fill="none" stroke="#a5d6a7" stroke-width="1.5" stroke-linecap="round"/></g>

      <!-- Row 4 -->
      <g transform="translate(22,148)"><path d="M0,10 Q2,5 0,0" fill="none" stroke="#81c784" stroke-width="1.5" stroke-linecap="round"/><path d="M5,10 Q4,4 6,0" fill="none" stroke="#a5d6a7" stroke-width="1.5" stroke-linecap="round"/></g>
      <g transform="translate(68,155)"><path d="M0,16 Q-1,8 2,0" fill="none" stroke="#81c784" stroke-width="1.5" stroke-linecap="round"/><path d="M6,16 Q8,10 5,1" fill="none" stroke="#a5d6a7" stroke-width="1.5" stroke-linecap="round"/><path d="M12,16 Q11,6 14,0" fill="none" stroke="#81c784" stroke-width="1.5" stroke-linecap="round"/></g>
      <g transform="translate(115,142)"><path d="M0,12 Q1,6 -1,0" fill="none" stroke="#a5d6a7" stroke-width="1.5" stroke-linecap="round"/><path d="M5,12 Q6,8 4,2" fill="none" stroke="#81c784" stroke-width="1.5" stroke-linecap="round"/></g>
      <g transform="translate(158,160)"><path d="M0,15 Q2,8 0,0" fill="none" stroke="#a5d6a7" stroke-width="1.5" stroke-linecap="round"/><path d="M5,15 Q6,5 8,0" fill="none" stroke="#81c784" stroke-width="1.5" stroke-linecap="round"/><path d="M10,15 Q9,9 12,2" fill="none" stroke="#a5d6a7" stroke-width="1.5" stroke-linecap="round"/></g>
      <g transform="translate(205,145)"><path d="M0,15 Q2,8 0,0" fill="none" stroke="#a5d6a7" stroke-width="1.5" stroke-linecap="round"/><path d="M5,15 Q6,5 8,0" fill="none" stroke="#81c784" stroke-width="1.5" stroke-linecap="round"/><path d="M10,15 Q9,9 12,2" fill="none" stroke="#a5d6a7" stroke-width="1.5" stroke-linecap="round"/><path d="M15,15 Q17,10 15,4" fill="none" stroke="#81c784" stroke-width="1.5" stroke-linecap="round"/></g>
      <g transform="translate(255,158)"><path d="M0,16 Q-1,8 2,0" fill="none" stroke="#81c784" stroke-width="1.5" stroke-linecap="round"/><path d="M6,16 Q8,10 5,1" fill="none" stroke="#a5d6a7" stroke-width="1.5" stroke-linecap="round"/><path d="M12,16 Q11,6 14,0" fill="none" stroke="#81c784" stroke-width="1.5" stroke-linecap="round"/></g>
      <g transform="translate(302,148)"><path d="M0,18 Q-2,10 2,0" fill="none" stroke="#81c784" stroke-width="1.5" stroke-linecap="round"/><path d="M6,18 Q7,12 5,3" fill="none" stroke="#a5d6a7" stroke-width="1.5" stroke-linecap="round"/><path d="M12,18 Q10,8 14,0" fill="none" stroke="#81c784" stroke-width="1.5" stroke-linecap="round"/><path d="M18,18 Q20,12 17,2" fill="none" stroke="#a5d6a7" stroke-width="1.5" stroke-linecap="round"/></g>
      <g transform="translate(352,162)"><path d="M0,14 Q2,8 0,0" fill="none" stroke="#a5d6a7" stroke-width="1.5" stroke-linecap="round"/><path d="M6,14 Q5,6 8,0" fill="none" stroke="#81c784" stroke-width="1.5" stroke-linecap="round"/><path d="M12,14 Q14,9 11,2" fill="none" stroke="#a5d6a7" stroke-width="1.5" stroke-linecap="round"/></g>
      <g transform="translate(398,150)"><path d="M0,12 Q1,6 -1,0" fill="none" stroke="#a5d6a7" stroke-width="1.5" stroke-linecap="round"/><path d="M5,12 Q6,4 4,0" fill="none" stroke="#81c784" stroke-width="1.5" stroke-linecap="round"/><path d="M10,12 Q8,7 11,1" fill="none" stroke="#a5d6a7" stroke-width="1.5" stroke-linecap="round"/></g>
      <g transform="translate(445,155)"><path d="M0,16 Q-1,8 2,0" fill="none" stroke="#81c784" stroke-width="1.5" stroke-linecap="round"/><path d="M6,16 Q8,10 5,1" fill="none" stroke="#a5d6a7" stroke-width="1.5" stroke-linecap="round"/><path d="M12,16 Q11,6 14,0" fill="none" stroke="#81c784" stroke-width="1.5" stroke-linecap="round"/></g>
      <g transform="translate(485,142)"><path d="M0,14 Q2,7 0,0" fill="none" stroke="#a5d6a7" stroke-width="1.5" stroke-linecap="round"/><path d="M5,14 Q4,5 7,0" fill="none" stroke="#81c784" stroke-width="1.5" stroke-linecap="round"/></g>

      <!-- Row 5 -->
      <g transform="translate(10,195)"><path d="M0,14 Q2,8 0,0" fill="none" stroke="#a5d6a7" stroke-width="1.5" stroke-linecap="round"/><path d="M6,14 Q5,6 8,0" fill="none" stroke="#81c784" stroke-width="1.5" stroke-linecap="round"/><path d="M12,14 Q14,9 11,2" fill="none" stroke="#a5d6a7" stroke-width="1.5" stroke-linecap="round"/></g>
      <g transform="translate(55,188)"><path d="M0,18 Q-2,10 2,0" fill="none" stroke="#81c784" stroke-width="1.5" stroke-linecap="round"/><path d="M6,18 Q7,12 5,3" fill="none" stroke="#a5d6a7" stroke-width="1.5" stroke-linecap="round"/><path d="M12,18 Q10,8 14,0" fill="none" stroke="#81c784" stroke-width="1.5" stroke-linecap="round"/></g>
      <g transform="translate(102,200)"><path d="M0,14 Q2,8 0,0" fill="none" stroke="#a5d6a7" stroke-width="1.5" stroke-linecap="round"/><path d="M6,14 Q5,6 8,0" fill="none" stroke="#81c784" stroke-width="1.5" stroke-linecap="round"/><path d="M12,14 Q14,9 11,2" fill="none" stroke="#a5d6a7" stroke-width="1.5" stroke-linecap="round"/></g>
      <g transform="translate(148,185)"><path d="M0,16 Q-1,8 2,0" fill="none" stroke="#81c784" stroke-width="1.5" stroke-linecap="round"/><path d="M6,16 Q8,10 5,1" fill="none" stroke="#a5d6a7" stroke-width="1.5" stroke-linecap="round"/><path d="M12,16 Q11,6 14,0" fill="none" stroke="#81c784" stroke-width="1.5" stroke-linecap="round"/></g>
      <g transform="translate(195,198)"><path d="M0,14 Q2,7 0,0" fill="none" stroke="#a5d6a7" stroke-width="1.5" stroke-linecap="round"/><path d="M5,14 Q4,5 7,0" fill="none" stroke="#81c784" stroke-width="1.5" stroke-linecap="round"/><path d="M10,14 Q12,8 9,1" fill="none" stroke="#a5d6a7" stroke-width="1.5" stroke-linecap="round"/></g>
      <g transform="translate(242,190)"><path d="M0,20 Q2,12 -1,0" fill="none" stroke="#81c784" stroke-width="1.5" stroke-linecap="round"/><path d="M7,20 Q8,10 6,2" fill="none" stroke="#a5d6a7" stroke-width="1.5" stroke-linecap="round"/><path d="M14,20 Q12,12 15,0" fill="none" stroke="#81c784" stroke-width="1.5" stroke-linecap="round"/><path d="M21,20 Q23,14 20,3" fill="none" stroke="#a5d6a7" stroke-width="1.5" stroke-linecap="round"/><path d="M28,20 Q26,10 29,1" fill="none" stroke="#81c784" stroke-width="1.5" stroke-linecap="round"/></g>
      <g transform="translate(295,202)"><path d="M0,12 Q1,5 -1,0" fill="none" stroke="#a5d6a7" stroke-width="1.5" stroke-linecap="round"/><path d="M5,12 Q6,7 4,1" fill="none" stroke="#81c784" stroke-width="1.5" stroke-linecap="round"/></g>
      <g transform="translate(338,188)"><path d="M0,14 Q2,8 0,0" fill="none" stroke="#a5d6a7" stroke-width="1.5" stroke-linecap="round"/><path d="M6,14 Q5,6 8,0" fill="none" stroke="#81c784" stroke-width="1.5" stroke-linecap="round"/><path d="M12,14 Q14,9 11,2" fill="none" stroke="#a5d6a7" stroke-width="1.5" stroke-linecap="round"/></g>
      <g transform="translate(385,195)"><path d="M0,16 Q-1,8 2,0" fill="none" stroke="#81c784" stroke-width="1.5" stroke-linecap="round"/><path d="M6,16 Q8,10 5,1" fill="none" stroke="#a5d6a7" stroke-width="1.5" stroke-linecap="round"/><path d="M12,16 Q11,6 14,0" fill="none" stroke="#81c784" stroke-width="1.5" stroke-linecap="round"/><path d="M18,16 Q20,11 17,3" fill="none" stroke="#a5d6a7" stroke-width="1.5" stroke-linecap="round"/></g>
      <g transform="translate(435,185)"><path d="M0,14 Q2,7 0,0" fill="none" stroke="#a5d6a7" stroke-width="1.5" stroke-linecap="round"/><path d="M5,14 Q4,5 7,0" fill="none" stroke="#81c784" stroke-width="1.5" stroke-linecap="round"/><path d="M10,14 Q12,8 9,1" fill="none" stroke="#a5d6a7" stroke-width="1.5" stroke-linecap="round"/></g>
      <g transform="translate(478,200)"><path d="M0,12 Q1,5 -1,0" fill="none" stroke="#a5d6a7" stroke-width="1.5" stroke-linecap="round"/><path d="M5,12 Q6,7 4,1" fill="none" stroke="#81c784" stroke-width="1.5" stroke-linecap="round"/><path d="M10,12 Q9,4 12,0" fill="none" stroke="#a5d6a7" stroke-width="1.5" stroke-linecap="round"/></g>

      <!-- Row 6 -->
      <g transform="translate(18,238)"><path d="M0,16 Q-1,8 2,0" fill="none" stroke="#81c784" stroke-width="1.5" stroke-linecap="round"/><path d="M6,16 Q8,10 5,1" fill="none" stroke="#a5d6a7" stroke-width="1.5" stroke-linecap="round"/><path d="M12,16 Q11,6 14,0" fill="none" stroke="#81c784" stroke-width="1.5" stroke-linecap="round"/></g>
      <g transform="translate(65,245)"><path d="M0,14 Q2,7 0,0" fill="none" stroke="#a5d6a7" stroke-width="1.5" stroke-linecap="round"/><path d="M5,14 Q4,5 7,0" fill="none" stroke="#81c784" stroke-width="1.5" stroke-linecap="round"/><path d="M10,14 Q12,8 9,1" fill="none" stroke="#a5d6a7" stroke-width="1.5" stroke-linecap="round"/></g>
      <g transform="translate(112,232)"><path d="M0,12 Q1,5 -1,0" fill="none" stroke="#a5d6a7" stroke-width="1.5" stroke-linecap="round"/><path d="M5,12 Q6,7 4,1" fill="none" stroke="#81c784" stroke-width="1.5" stroke-linecap="round"/><path d="M10,12 Q9,4 12,0" fill="none" stroke="#a5d6a7" stroke-width="1.5" stroke-linecap="round"/></g>
      <g transform="translate(158,248)"><path d="M0,18 Q-2,10 2,0" fill="none" stroke="#81c784" stroke-width="1.5" stroke-linecap="round"/><path d="M6,18 Q7,12 5,3" fill="none" stroke="#a5d6a7" stroke-width="1.5" stroke-linecap="round"/><path d="M12,18 Q10,8 14,0" fill="none" stroke="#81c784" stroke-width="1.5" stroke-linecap="round"/></g>
      <g transform="translate(205,235)"><path d="M0,14 Q2,8 0,0" fill="none" stroke="#a5d6a7" stroke-width="1.5" stroke-linecap="round"/><path d="M6,14 Q5,6 8,0" fill="none" stroke="#81c784" stroke-width="1.5" stroke-linecap="round"/></g>
      <g transform="translate(248,242)"><path d="M0,15 Q2,8 0,0" fill="none" stroke="#a5d6a7" stroke-width="1.5" stroke-linecap="round"/><path d="M5,15 Q6,5 8,0" fill="none" stroke="#81c784" stroke-width="1.5" stroke-linecap="round"/><path d="M10,15 Q9,9 12,2" fill="none" stroke="#a5d6a7" stroke-width="1.5" stroke-linecap="round"/></g>
      <g transform="translate(295,230)"><path d="M0,16 Q-1,8 2,0" fill="none" stroke="#81c784" stroke-width="1.5" stroke-linecap="round"/><path d="M6,16 Q8,10 5,1" fill="none" stroke="#a5d6a7" stroke-width="1.5" stroke-linecap="round"/><path d="M12,16 Q11,6 14,0" fill="none" stroke="#81c784" stroke-width="1.5" stroke-linecap="round"/></g>
      <g transform="translate(342,250)"><path d="M0,14 Q2,7 0,0" fill="none" stroke="#a5d6a7" stroke-width="1.5" stroke-linecap="round"/><path d="M5,14 Q4,5 7,0" fill="none" stroke="#81c784" stroke-width="1.5" stroke-linecap="round"/><path d="M10,14 Q12,8 9,1" fill="none" stroke="#a5d6a7" stroke-width="1.5" stroke-linecap="round"/></g>
      <g transform="translate(388,238)"><path d="M0,12 Q1,6 -1,0" fill="none" stroke="#a5d6a7" stroke-width="1.5" stroke-linecap="round"/><path d="M5,12 Q6,4 4,0" fill="none" stroke="#81c784" stroke-width="1.5" stroke-linecap="round"/><path d="M10,12 Q8,7 11,1" fill="none" stroke="#a5d6a7" stroke-width="1.5" stroke-linecap="round"/></g>
      <g transform="translate(432,245)"><path d="M0,18 Q2,10 -1,0" fill="none" stroke="#81c784" stroke-width="1.5" stroke-linecap="round"/><path d="M7,18 Q6,8 9,1" fill="none" stroke="#a5d6a7" stroke-width="1.5" stroke-linecap="round"/><path d="M14,18 Q16,12 13,2" fill="none" stroke="#81c784" stroke-width="1.5" stroke-linecap="round"/></g>
      <g transform="translate(480,235)"><path d="M0,15 Q2,8 0,0" fill="none" stroke="#81c784" stroke-width="1.5" stroke-linecap="round"/><path d="M5,15 Q4,7 7,1" fill="none" stroke="#a5d6a7" stroke-width="1.5" stroke-linecap="round"/></g>

      <!-- Row 7 -->
      <g transform="translate(8,282)"><path d="M0,14 Q-1,7 2,0" fill="none" stroke="#a5d6a7" stroke-width="1.5" stroke-linecap="round"/><path d="M6,14 Q7,9 5,2" fill="none" stroke="#81c784" stroke-width="1.5" stroke-linecap="round"/><path d="M12,14 Q11,5 14,0" fill="none" stroke="#a5d6a7" stroke-width="1.5" stroke-linecap="round"/></g>
      <g transform="translate(55,275)"><path d="M0,15 Q2,8 0,0" fill="none" stroke="#81c784" stroke-width="1.5" stroke-linecap="round"/><path d="M5,15 Q4,7 7,1" fill="none" stroke="#a5d6a7" stroke-width="1.5" stroke-linecap="round"/></g>
      <g transform="translate(98,288)"><path d="M0,12 Q1,6 -1,0" fill="none" stroke="#a5d6a7" stroke-width="1.5" stroke-linecap="round"/><path d="M5,12 Q6,4 4,0" fill="none" stroke="#81c784" stroke-width="1.5" stroke-linecap="round"/></g>
      <g transform="translate(142,278)"><path d="M0,14 Q-1,7 2,0" fill="none" stroke="#a5d6a7" stroke-width="1.5" stroke-linecap="round"/><path d="M6,14 Q7,9 5,2" fill="none" stroke="#81c784" stroke-width="1.5" stroke-linecap="round"/><path d="M12,14 Q11,5 14,0" fill="none" stroke="#a5d6a7" stroke-width="1.5" stroke-linecap="round"/></g>
      <g transform="translate(188,290)"><path d="M0,15 Q2,8 0,0" fill="none" stroke="#81c784" stroke-width="1.5" stroke-linecap="round"/><path d="M5,15 Q4,7 7,1" fill="none" stroke="#a5d6a7" stroke-width="1.5" stroke-linecap="round"/><path d="M10,15 Q12,8 9,1" fill="none" stroke="#a5d6a7" stroke-width="1.5" stroke-linecap="round"/></g>
      <g transform="translate(235,280)"><path d="M0,10 Q1,5 0,0" fill="none" stroke="#a5d6a7" stroke-width="1.5" stroke-linecap="round"/><path d="M4,10 Q5,6 3,1" fill="none" stroke="#81c784" stroke-width="1.5" stroke-linecap="round"/></g>
      <g transform="translate(278,285)"><path d="M0,16 Q-1,8 2,0" fill="none" stroke="#81c784" stroke-width="1.5" stroke-linecap="round"/><path d="M6,16 Q8,10 5,1" fill="none" stroke="#a5d6a7" stroke-width="1.5" stroke-linecap="round"/><path d="M12,16 Q11,6 14,0" fill="none" stroke="#81c784" stroke-width="1.5" stroke-linecap="round"/></g>
      <g transform="translate(325,275)"><path d="M0,14 Q2,7 0,0" fill="none" stroke="#a5d6a7" stroke-width="1.5" stroke-linecap="round"/><path d="M5,14 Q4,5 7,0" fill="none" stroke="#81c784" stroke-width="1.5" stroke-linecap="round"/><path d="M10,14 Q12,8 9,1" fill="none" stroke="#a5d6a7" stroke-width="1.5" stroke-linecap="round"/></g>
      <g transform="translate(372,292)"><path d="M0,12 Q1,5 -1,0" fill="none" stroke="#a5d6a7" stroke-width="1.5" stroke-linecap="round"/><path d="M5,12 Q6,7 4,1" fill="none" stroke="#81c784" stroke-width="1.5" stroke-linecap="round"/><path d="M10,12 Q9,4 12,0" fill="none" stroke="#a5d6a7" stroke-width="1.5" stroke-linecap="round"/></g>
      <g transform="translate(418,278)"><path d="M0,18 Q-2,10 2,0" fill="none" stroke="#81c784" stroke-width="1.5" stroke-linecap="round"/><path d="M6,18 Q7,12 5,3" fill="none" stroke="#a5d6a7" stroke-width="1.5" stroke-linecap="round"/><path d="M12,18 Q10,8 14,0" fill="none" stroke="#81c784" stroke-width="1.5" stroke-linecap="round"/></g>
      <g transform="translate(465,288)"><path d="M0,14 Q2,8 0,0" fill="none" stroke="#a5d6a7" stroke-width="1.5" stroke-linecap="round"/><path d="M6,14 Q5,6 8,0" fill="none" stroke="#81c784" stroke-width="1.5" stroke-linecap="round"/></g>

      <!-- Row 8 -->
      <g transform="translate(22,325)"><path d="M0,16 Q-1,8 2,0" fill="none" stroke="#81c784" stroke-width="1.5" stroke-linecap="round"/><path d="M6,16 Q8,10 5,1" fill="none" stroke="#a5d6a7" stroke-width="1.5" stroke-linecap="round"/><path d="M12,16 Q11,6 14,0" fill="none" stroke="#81c784" stroke-width="1.5" stroke-linecap="round"/></g>
      <g transform="translate(68,332)"><path d="M0,14 Q2,7 0,0" fill="none" stroke="#a5d6a7" stroke-width="1.5" stroke-linecap="round"/><path d="M5,14 Q4,5 7,0" fill="none" stroke="#81c784" stroke-width="1.5" stroke-linecap="round"/></g>
      <g transform="translate(115,320)"><path d="M0,18 Q2,10 -1,0" fill="none" stroke="#81c784" stroke-width="1.5" stroke-linecap="round"/><path d="M7,18 Q6,8 9,1" fill="none" stroke="#a5d6a7" stroke-width="1.5" stroke-linecap="round"/><path d="M14,18 Q16,12 13,2" fill="none" stroke="#81c784" stroke-width="1.5" stroke-linecap="round"/></g>
      <g transform="translate(162,335)"><path d="M0,12 Q1,6 -1,0" fill="none" stroke="#a5d6a7" stroke-width="1.5" stroke-linecap="round"/><path d="M5,12 Q6,4 4,0" fill="none" stroke="#81c784" stroke-width="1.5" stroke-linecap="round"/><path d="M10,12 Q8,7 11,1" fill="none" stroke="#a5d6a7" stroke-width="1.5" stroke-linecap="round"/></g>
      <g transform="translate(208,322)"><path d="M0,15 Q2,8 0,0" fill="none" stroke="#a5d6a7" stroke-width="1.5" stroke-linecap="round"/><path d="M5,15 Q6,5 8,0" fill="none" stroke="#81c784" stroke-width="1.5" stroke-linecap="round"/><path d="M10,15 Q9,9 12,2" fill="none" stroke="#a5d6a7" stroke-width="1.5" stroke-linecap="round"/></g>
      <g transform="translate(255,330)"><path d="M0,14 Q-1,7 2,0" fill="none" stroke="#a5d6a7" stroke-width="1.5" stroke-linecap="round"/><path d="M6,14 Q7,9 5,2" fill="none" stroke="#81c784" stroke-width="1.5" stroke-linecap="round"/></g>
      <g transform="translate(302,318)"><path d="M0,16 Q-1,8 2,0" fill="none" stroke="#81c784" stroke-width="1.5" stroke-linecap="round"/><path d="M6,16 Q8,10 5,1" fill="none" stroke="#a5d6a7" stroke-width="1.5" stroke-linecap="round"/><path d="M12,16 Q11,6 14,0" fill="none" stroke="#81c784" stroke-width="1.5" stroke-linecap="round"/><path d="M18,16 Q20,11 17,3" fill="none" stroke="#a5d6a7" stroke-width="1.5" stroke-linecap="round"/></g>
      <g transform="translate(352,328)"><path d="M0,14 Q2,7 0,0" fill="none" stroke="#a5d6a7" stroke-width="1.5" stroke-linecap="round"/><path d="M5,14 Q4,5 7,0" fill="none" stroke="#81c784" stroke-width="1.5" stroke-linecap="round"/><path d="M10,14 Q12,8 9,1" fill="none" stroke="#a5d6a7" stroke-width="1.5" stroke-linecap="round"/></g>
      <g transform="translate(398,338)"><path d="M0,12 Q1,5 -1,0" fill="none" stroke="#a5d6a7" stroke-width="1.5" stroke-linecap="round"/><path d="M5,12 Q6,7 4,1" fill="none" stroke="#81c784" stroke-width="1.5" stroke-linecap="round"/></g>
      <g transform="translate(442,322)"><path d="M0,18 Q-2,10 2,0" fill="none" stroke="#81c784" stroke-width="1.5" stroke-linecap="round"/><path d="M6,18 Q7,12 5,3" fill="none" stroke="#a5d6a7" stroke-width="1.5" stroke-linecap="round"/><path d="M12,18 Q10,8 14,0" fill="none" stroke="#81c784" stroke-width="1.5" stroke-linecap="round"/></g>
      <g transform="translate(485,332)"><path d="M0,15 Q2,8 0,0" fill="none" stroke="#a5d6a7" stroke-width="1.5" stroke-linecap="round"/><path d="M5,15 Q4,7 7,1" fill="none" stroke="#81c784" stroke-width="1.5" stroke-linecap="round"/></g>

      <!-- Row 9 -->
      <g transform="translate(12,368)"><path d="M0,14 Q2,8 0,0" fill="none" stroke="#a5d6a7" stroke-width="1.5" stroke-linecap="round"/><path d="M6,14 Q5,6 8,0" fill="none" stroke="#81c784" stroke-width="1.5" stroke-linecap="round"/><path d="M12,14 Q14,9 11,2" fill="none" stroke="#a5d6a7" stroke-width="1.5" stroke-linecap="round"/></g>
      <g transform="translate(58,375)"><path d="M0,16 Q-1,8 2,0" fill="none" stroke="#81c784" stroke-width="1.5" stroke-linecap="round"/><path d="M6,16 Q8,10 5,1" fill="none" stroke="#a5d6a7" stroke-width="1.5" stroke-linecap="round"/><path d="M12,16 Q11,6 14,0" fill="none" stroke="#81c784" stroke-width="1.5" stroke-linecap="round"/></g>
      <g transform="translate(105,362)"><path d="M0,14 Q2,7 0,0" fill="none" stroke="#a5d6a7" stroke-width="1.5" stroke-linecap="round"/><path d="M5,14 Q4,5 7,0" fill="none" stroke="#81c784" stroke-width="1.5" stroke-linecap="round"/><path d="M10,14 Q12,8 9,1" fill="none" stroke="#a5d6a7" stroke-width="1.5" stroke-linecap="round"/></g>
      <g transform="translate(152,378)"><path d="M0,12 Q1,6 -1,0" fill="none" stroke="#a5d6a7" stroke-width="1.5" stroke-linecap="round"/><path d="M5,12 Q6,4 4,0" fill="none" stroke="#81c784" stroke-width="1.5" stroke-linecap="round"/></g>
      <g transform="translate(198,365)"><path d="M0,18 Q-2,10 2,0" fill="none" stroke="#81c784" stroke-width="1.5" stroke-linecap="round"/><path d="M6,18 Q7,12 5,3" fill="none" stroke="#a5d6a7" stroke-width="1.5" stroke-linecap="round"/><path d="M12,18 Q10,8 14,0" fill="none" stroke="#81c784" stroke-width="1.5" stroke-linecap="round"/></g>
      <g transform="translate(245,372)"><path d="M0,15 Q2,8 0,0" fill="none" stroke="#a5d6a7" stroke-width="1.5" stroke-linecap="round"/><path d="M5,15 Q6,5 8,0" fill="none" stroke="#81c784" stroke-width="1.5" stroke-linecap="round"/><path d="M10,15 Q9,9 12,2" fill="none" stroke="#a5d6a7" stroke-width="1.5" stroke-linecap="round"/></g>
      <g transform="translate(292,380)"><path d="M0,14 Q-1,7 2,0" fill="none" stroke="#a5d6a7" stroke-width="1.5" stroke-linecap="round"/><path d="M6,14 Q7,9 5,2" fill="none" stroke="#81c784" stroke-width="1.5" stroke-linecap="round"/><path d="M12,14 Q11,5 14,0" fill="none" stroke="#a5d6a7" stroke-width="1.5" stroke-linecap="round"/></g>
      <g transform="translate(338,368)"><path d="M0,16 Q-1,8 2,0" fill="none" stroke="#81c784" stroke-width="1.5" stroke-linecap="round"/><path d="M6,16 Q8,10 5,1" fill="none" stroke="#a5d6a7" stroke-width="1.5" stroke-linecap="round"/><path d="M12,16 Q11,6 14,0" fill="none" stroke="#81c784" stroke-width="1.5" stroke-linecap="round"/></g>
      <g transform="translate(385,375)"><path d="M0,12 Q1,5 -1,0" fill="none" stroke="#a5d6a7" stroke-width="1.5" stroke-linecap="round"/><path d="M5,12 Q6,7 4,1" fill="none" stroke="#81c784" stroke-width="1.5" stroke-linecap="round"/><path d="M10,12 Q9,4 12,0" fill="none" stroke="#a5d6a7" stroke-width="1.5" stroke-linecap="round"/></g>
      <g transform="translate(432,362)"><path d="M0,14 Q2,7 0,0" fill="none" stroke="#a5d6a7" stroke-width="1.5" stroke-linecap="round"/><path d="M5,14 Q4,5 7,0" fill="none" stroke="#81c784" stroke-width="1.5" stroke-linecap="round"/><path d="M10,14 Q12,8 9,1" fill="none" stroke="#a5d6a7" stroke-width="1.5" stroke-linecap="round"/></g>
      <g transform="translate(478,378)"><path d="M0,16 Q-1,8 2,0" fill="none" stroke="#81c784" stroke-width="1.5" stroke-linecap="round"/><path d="M6,16 Q8,10 5,1" fill="none" stroke="#a5d6a7" stroke-width="1.5" stroke-linecap="round"/></g>

      <!-- Row 10 -->
      <g transform="translate(25,415)"><path d="M0,15 Q2,8 0,0" fill="none" stroke="#81c784" stroke-width="1.5" stroke-linecap="round"/><path d="M5,15 Q4,7 7,1" fill="none" stroke="#a5d6a7" stroke-width="1.5" stroke-linecap="round"/><path d="M10,15 Q12,8 9,1" fill="none" stroke="#a5d6a7" stroke-width="1.5" stroke-linecap="round"/></g>
      <g transform="translate(72,408)"><path d="M0,14 Q-1,7 2,0" fill="none" stroke="#a5d6a7" stroke-width="1.5" stroke-linecap="round"/><path d="M6,14 Q7,9 5,2" fill="none" stroke="#81c784" stroke-width="1.5" stroke-linecap="round"/></g>
      <g transform="translate(118,420)"><path d="M0,16 Q-1,8 2,0" fill="none" stroke="#81c784" stroke-width="1.5" stroke-linecap="round"/><path d="M6,16 Q8,10 5,1" fill="none" stroke="#a5d6a7" stroke-width="1.5" stroke-linecap="round"/><path d="M12,16 Q11,6 14,0" fill="none" stroke="#81c784" stroke-width="1.5" stroke-linecap="round"/></g>
      <g transform="translate(165,410)"><path d="M0,12 Q1,6 -1,0" fill="none" stroke="#a5d6a7" stroke-width="1.5" stroke-linecap="round"/><path d="M5,12 Q6,4 4,0" fill="none" stroke="#81c784" stroke-width="1.5" stroke-linecap="round"/><path d="M10,12 Q8,7 11,1" fill="none" stroke="#a5d6a7" stroke-width="1.5" stroke-linecap="round"/></g>
      <g transform="translate(212,418)"><path d="M0,18 Q2,10 -1,0" fill="none" stroke="#81c784" stroke-width="1.5" stroke-linecap="round"/><path d="M7,18 Q6,8 9,1" fill="none" stroke="#a5d6a7" stroke-width="1.5" stroke-linecap="round"/><path d="M14,18 Q16,12 13,2" fill="none" stroke="#81c784" stroke-width="1.5" stroke-linecap="round"/></g>
      <g transform="translate(258,405)"><path d="M0,14 Q2,8 0,0" fill="none" stroke="#a5d6a7" stroke-width="1.5" stroke-linecap="round"/><path d="M6,14 Q5,6 8,0" fill="none" stroke="#81c784" stroke-width="1.5" stroke-linecap="round"/><path d="M12,14 Q14,9 11,2" fill="none" stroke="#a5d6a7" stroke-width="1.5" stroke-linecap="round"/></g>
      <g transform="translate(305,422)"><path d="M0,15 Q2,8 0,0" fill="none" stroke="#a5d6a7" stroke-width="1.5" stroke-linecap="round"/><path d="M5,15 Q6,5 8,0" fill="none" stroke="#81c784" stroke-width="1.5" stroke-linecap="round"/><path d="M10,15 Q9,9 12,2" fill="none" stroke="#a5d6a7" stroke-width="1.5" stroke-linecap="round"/></g>
      <g transform="translate(352,412)"><path d="M0,16 Q-1,8 2,0" fill="none" stroke="#81c784" stroke-width="1.5" stroke-linecap="round"/><path d="M6,16 Q8,10 5,1" fill="none" stroke="#a5d6a7" stroke-width="1.5" stroke-linecap="round"/></g>
      <g transform="translate(398,418)"><path d="M0,14 Q2,7 0,0" fill="none" stroke="#a5d6a7" stroke-width="1.5" stroke-linecap="round"/><path d="M5,14 Q4,5 7,0" fill="none" stroke="#81c784" stroke-width="1.5" stroke-linecap="round"/><path d="M10,14 Q12,8 9,1" fill="none" stroke="#a5d6a7" stroke-width="1.5" stroke-linecap="round"/></g>
      <g transform="translate(445,408)"><path d="M0,12 Q1,5 -1,0" fill="none" stroke="#a5d6a7" stroke-width="1.5" stroke-linecap="round"/><path d="M5,12 Q6,7 4,1" fill="none" stroke="#81c784" stroke-width="1.5" stroke-linecap="round"/><path d="M10,12 Q9,4 12,0" fill="none" stroke="#a5d6a7" stroke-width="1.5" stroke-linecap="round"/></g>
      <g transform="translate(488,420)"><path d="M0,14 Q-1,7 2,0" fill="none" stroke="#a5d6a7" stroke-width="1.5" stroke-linecap="round"/><path d="M6,14 Q7,9 5,2" fill="none" stroke="#81c784" stroke-width="1.5" stroke-linecap="round"/></g>

      <!-- Row 11 -->
      <g transform="translate(10,458)"><path d="M0,16 Q-1,8 2,0" fill="none" stroke="#81c784" stroke-width="1.5" stroke-linecap="round"/><path d="M6,16 Q8,10 5,1" fill="none" stroke="#a5d6a7" stroke-width="1.5" stroke-linecap="round"/><path d="M12,16 Q11,6 14,0" fill="none" stroke="#81c784" stroke-width="1.5" stroke-linecap="round"/></g>
      <g transform="translate(58,465)"><path d="M0,14 Q2,7 0,0" fill="none" stroke="#a5d6a7" stroke-width="1.5" stroke-linecap="round"/><path d="M5,14 Q4,5 7,0" fill="none" stroke="#81c784" stroke-width="1.5" stroke-linecap="round"/><path d="M10,14 Q12,8 9,1" fill="none" stroke="#a5d6a7" stroke-width="1.5" stroke-linecap="round"/></g>
      <g transform="translate(105,452)"><path d="M0,12 Q1,6 -1,0" fill="none" stroke="#a5d6a7" stroke-width="1.5" stroke-linecap="round"/><path d="M5,12 Q6,4 4,0" fill="none" stroke="#81c784" stroke-width="1.5" stroke-linecap="round"/></g>
      <g transform="translate(148,468)"><path d="M0,18 Q-2,10 2,0" fill="none" stroke="#81c784" stroke-width="1.5" stroke-linecap="round"/><path d="M6,18 Q7,12 5,3" fill="none" stroke="#a5d6a7" stroke-width="1.5" stroke-linecap="round"/><path d="M12,18 Q10,8 14,0" fill="none" stroke="#81c784" stroke-width="1.5" stroke-linecap="round"/></g>
      <g transform="translate(195,455)"><path d="M0,14 Q2,8 0,0" fill="none" stroke="#a5d6a7" stroke-width="1.5" stroke-linecap="round"/><path d="M6,14 Q5,6 8,0" fill="none" stroke="#81c784" stroke-width="1.5" stroke-linecap="round"/><path d="M12,14 Q14,9 11,2" fill="none" stroke="#a5d6a7" stroke-width="1.5" stroke-linecap="round"/></g>
      <g transform="translate(242,462)"><path d="M0,15 Q2,8 0,0" fill="none" stroke="#81c784" stroke-width="1.5" stroke-linecap="round"/><path d="M5,15 Q4,7 7,1" fill="none" stroke="#a5d6a7" stroke-width="1.5" stroke-linecap="round"/></g>
      <g transform="translate(288,470)"><path d="M0,16 Q-1,8 2,0" fill="none" stroke="#81c784" stroke-width="1.5" stroke-linecap="round"/><path d="M6,16 Q8,10 5,1" fill="none" stroke="#a5d6a7" stroke-width="1.5" stroke-linecap="round"/><path d="M12,16 Q11,6 14,0" fill="none" stroke="#81c784" stroke-width="1.5" stroke-linecap="round"/></g>
      <g transform="translate(335,458)"><path d="M0,14 Q2,7 0,0" fill="none" stroke="#a5d6a7" stroke-width="1.5" stroke-linecap="round"/><path d="M5,14 Q4,5 7,0" fill="none" stroke="#81c784" stroke-width="1.5" stroke-linecap="round"/><path d="M10,14 Q12,8 9,1" fill="none" stroke="#a5d6a7" stroke-width="1.5" stroke-linecap="round"/></g>
      <g transform="translate(382,465)"><path d="M0,12 Q1,5 -1,0" fill="none" stroke="#a5d6a7" stroke-width="1.5" stroke-linecap="round"/><path d="M5,12 Q6,7 4,1" fill="none" stroke="#81c784" stroke-width="1.5" stroke-linecap="round"/><path d="M10,12 Q9,4 12,0" fill="none" stroke="#a5d6a7" stroke-width="1.5" stroke-linecap="round"/></g>
      <g transform="translate(428,455)"><path d="M0,18 Q2,10 -1,0" fill="none" stroke="#81c784" stroke-width="1.5" stroke-linecap="round"/><path d="M7,18 Q6,8 9,1" fill="none" stroke="#a5d6a7" stroke-width="1.5" stroke-linecap="round"/><path d="M14,18 Q16,12 13,2" fill="none" stroke="#81c784" stroke-width="1.5" stroke-linecap="round"/></g>
      <g transform="translate(475,468)"><path d="M0,14 Q-1,7 2,0" fill="none" stroke="#a5d6a7" stroke-width="1.5" stroke-linecap="round"/><path d="M6,14 Q7,9 5,2" fill="none" stroke="#81c784" stroke-width="1.5" stroke-linecap="round"/><path d="M12,14 Q11,5 14,0" fill="none" stroke="#a5d6a7" stroke-width="1.5" stroke-linecap="round"/></g>
</svg>
